{
  "extensionsUsed": [
    "KHR_materials_transmission",
    "KHR_materials_clearcoat",
    "KHR_materials_ior",
    "KHR_materials_specular",
    "KHR_materials_emissive_strength",
    "KHR_texture_transform"
  ],
  "accessors": [
    {
      "bufferView": 0,
      "componentType": 5126,
      "count": 18,
      "type": "VEC3",
      "max": [
        0.10129609,
        0.044,
        -0.573173642
      ],
      "min": [
        0.06676945,
        0.0,
        -0.6077003
      ]
    },
    {
      "bufferView": 1,
      "componentType": 5125,
      "count": 24,
      "type": "SCALAR",
      "max": [
        17.0
      ],
      "min": [
        0.0
      ]
    },
    {
      "bufferView": 2,
      "componentType": 5126,
      "count": 18,
      "type": "VEC3",
      "max": [
        0.707107,
        1.0,
        0.7071066
      ],
      "min": [
        -1.0,
        -1.0,
        -1.0
      ]
    },
    {
      "bufferView": 3,
      "componentType": 5126,
      "count": 18,
      "type": "VEC2",
      "max": [
        1.0,
        1.0
      ],
      "min": [
        0.0,
        0.0
      ]
    },
    {
      "bufferView": 4,
      "componentType": 5126,
      "count": 480,
      "type": "VEC3",
      "max": [
        0.239498749,
        0.044,
        -0.5237322
      ],
      "min": [
        0.173820034,
        0.0,
        -0.60770005
      ]
    },
    {
      "bufferView": 5,
      "componentType": 5125,
      "count": 1404,
      "type": "SCALAR",
      "max": [
        479.0
      ],
      "min": [
        0.0
      ]
    },
    {
      "bufferView": 6,
      "componentType": 5126,
      "count": 480,
      "type": "VEC3",
      "max": [
        1.0,
        1.0,
        1.0
      ],
      "min": [
        -1.0,
        -1.0,
        -1.0
      ]
    },
    {
      "bufferView": 7,
      "componentType": 5126,
      "count": 480,
      "type": "VEC2",
      "max": [
        1.0,
        1.0
      ],
      "min": [
        0.0,
        0.0
      ]
    },
    {
      "bufferView": 8,
      "componentType": 5126,
      "count": 66,
      "type": "VEC3",
      "max": [
        0.47759676,
        0.044,
        -0.5254574
      ],
      "min": [
        0.391903073,
        0.0,
        -0.6059746
      ]
    },
    {
      "bufferView": 9,
      "componentType": 5125,
      "count": 132,
      "type": "SCALAR",
      "max": [
        65.0
      ],
      "min": [
        0.0
      ]
    },
    {
      "bufferView": 10,
      "componentType": 5126,
      "count": 66,
      "type": "VEC3",
      "max": [
        0.9501386,
        1.0,
        1.0
      ],
      "min": [
        -0.9512505,
        -1.0,
        -1.0
      ]
    },
    {
      "bufferView": 11,
      "componentType": 5126,
      "count": 66,
      "type": "VEC2",
      "max": [
        1.0,
        1.0
      ],
      "min": [
        0.0,
        0.0
      ]
    },
    {
      "bufferView": 12,
      "componentType": 5126,
      "count": 72,
      "type": "VEC3",
      "max": [
        0.7898908,
        0.044,
        -0.5254577
      ],
      "min": [
        0.712824345,
        0.0,
        -0.6059749
      ]
    },
    {
      "bufferView": 13,
      "componentType": 5125,
      "count": 132,
      "type": "SCALAR",
      "max": [
        71.0
      ],
      "min": [
        0.0
      ]
    },
    {
      "bufferView": 14,
      "componentType": 5126,
      "count": 72,
      "type": "VEC3",
      "max": [
        1.0,
        1.0,
        1.0
      ],
      "min": [
        -1.0,
        -1.0,
        -1.0
      ]
    },
    {
      "bufferView": 15,
      "componentType": 5126,
      "count": 72,
      "type": "VEC2",
      "max": [
        1.0,
        1.0
      ],
      "min": [
        0.0,
        0.0
      ]
    },
    {
      "bufferView": 16,
      "componentType": 5126,
      "count": 24,
      "type": "VEC3",
      "max": [
        0.700171769,
        0.044,
        -0.5254574
      ],
      "min": [
        0.678317,
        0.0,
        -0.6059745
      ]
    },
    {
      "bufferView": 17,
      "componentType": 5125,
      "count": 36,
      "type": "SCALAR",
      "max": [
        23.0
      ],
      "min": [
        0.0
      ]
    },
    {
      "bufferView": 18,
      "componentType": 5126,
      "count": 24,
      "type": "VEC3",
      "max": [
        1.0,
        1.0,
        1.0
      ],
      "min": [
        -1.0,
        -1.0,
        -1.0
      ]
    },
    {
      "bufferView": 19,
      "componentType": 5126,
      "count": 24,
      "type": "VEC2",
      "max": [
        1.0,
        1.0
      ],
      "min": [
        0.0,
        0.0
      ]
    },
    {
      "bufferView": 20,
      "componentType": 5126,
      "count": 96,
      "type": "VEC3",
      "max": [
        0.673715234,
        0.044,
        -0.5254577
      ],
      "min": [
        0.545118153,
        0.0,
        -0.6059749
      ]
    },
    {
      "bufferView": 21,
      "componentType": 5125,
      "count": 180,
      "type": "SCALAR",
      "max": [
        95.0
      ],
      "min": [
        0.0
      ]
    },
    {
      "bufferView": 22,
      "componentType": 5126,
      "count": 96,
      "type": "VEC3",
      "max": [
        0.9598014,
        1.0,
        1.0
      ],
      "min": [
        -0.9598069,
        -1.0,
        -1.0
      ]
    },
    {
      "bufferView": 23,
      "componentType": 5126,
      "count": 96,
      "type": "VEC2",
      "max": [
        1.0,
        1.0
      ],
      "min": [
        0.0,
        0.0
      ]
    },
    {
      "bufferView": 24,
      "componentType": 5126,
      "count": 350,
      "type": "VEC3",
      "max": [
        0.5514433,
        0.044,
        -0.5254574
      ],
      "min": [
        0.48162353,
        0.0,
        -0.6059746
      ]
    },
    {
      "bufferView": 25,
      "componentType": 5125,
      "count": 984,
      "type": "SCALAR",
      "max": [
        349.0
      ],
      "min": [
        0.0
      ]
    },
    {
      "bufferView": 26,
      "componentType": 5126,
      "count": 350,
      "type": "VEC3",
      "max": [
        1.0,
        1.0,
        1.0
      ],
      "min": [
        -1.0,
        -1.0,
        -1.0
      ]
    },
    {
      "bufferView": 27,
      "componentType": 5126,
      "count": 350,
      "type": "VEC2",
      "max": [
        1.0,
        1.0
      ],
      "min": [
        0.0,
        0.0
      ]
    },
    {
      "bufferView": 28,
      "componentType": 5126,
      "count": 36,
      "type": "VEC3",
      "max": [
        0.3896038,
        0.044,
        -0.5254577
      ],
      "min": [
        0.3373819,
        0.0,
        -0.6059749
      ]
    },
    {
      "bufferView": 29,
      "componentType": 5125,
      "count": 60,
      "type": "SCALAR",
      "max": [
        35.0
      ],
      "min": [
        0.0
      ]
    },
    {
      "bufferView": 30,
      "componentType": 5126,
      "count": 36,
      "type": "VEC3",
      "max": [
        1.0,
        1.0,
        1.0
      ],
      "min": [
        -1.0,
        -1.0,
        -1.0
      ]
    },
    {
      "bufferView": 31,
      "componentType": 5126,
      "count": 36,
      "type": "VEC2",
      "max": [
        1.0,
        1.0
      ],
      "min": [
        0.0,
        0.0
      ]
    },
    {
      "bufferView": 32,
      "componentType": 5126,
      "count": 516,
      "type": "VEC3",
      "max": [
        0.3293327,
        0.044,
        -0.5237317
      ],
      "min": [
        0.243524253,
        0.0,
        -0.6077006
      ]
    },
    {
      "bufferView": 33,
      "componentType": 5125,
      "count": 1536,
      "type": "SCALAR",
      "max": [
        515.0
      ],
      "min": [
        0.0
      ]
    },
    {
      "bufferView": 34,
      "componentType": 5126,
      "count": 516,
      "type": "VEC3",
      "max": [
        1.0,
        1.0,
        1.0
      ],
      "min": [
        -1.0,
        -1.0,
        -1.0
      ]
    },
    {
      "bufferView": 35,
      "componentType": 5126,
      "count": 516,
      "type": "VEC2",
      "max": [
        1.0,
        1.0
      ],
      "min": [
        0.0,
        0.0
      ]
    },
    {
      "bufferView": 36,
      "componentType": 5126,
      "count": 24,
      "type": "VEC3",
      "max": [
        0.148049742,
        0.044,
        -0.52641964
      ],
      "min": [
        0.06676897,
        0.0,
        -0.6077004
      ]
    },
    {
      "bufferView": 37,
      "componentType": 5125,
      "count": 36,
      "type": "SCALAR",
      "max": [
        23.0
      ],
      "min": [
        0.0
      ]
    },
    {
      "bufferView": 38,
      "componentType": 5126,
      "count": 24,
      "type": "VEC3",
      "max": [
        0.7071068,
        1.0,
        0.707106769
      ],
      "min": [
        -1.0,
        -1.0,
        -1.0
      ]
    },
    {
      "bufferView": 39,
      "componentType": 5126,
      "count": 24,
      "type": "VEC2",
      "max": [
        1.0,
        1.0
      ],
      "min": [
        0.0,
        0.0
      ]
    },
    {
      "bufferView": 40,
      "componentType": 5126,
      "count": 24,
      "type": "VEC3",
      "max": [
        0.155376315,
        0.044,
        -0.519092
      ],
      "min": [
        0.07409554,
        0.0,
        -0.600371838
      ]
    },
    {
      "bufferView": 41,
      "componentType": 5125,
      "count": 36,
      "type": "SCALAR",
      "max": [
        23.0
      ],
      "min": [
        0.0
      ]
    },
    {
      "bufferView": 42,
      "componentType": 5126,
      "count": 24,
      "type": "VEC3",
      "max": [
        1.0,
        1.0,
        1.0
      ],
      "min": [
        -0.707102537,
        -1.0,
        -0.707111061
      ]
    },
    {
      "bufferView": 43,
      "componentType": 5126,
      "count": 24,
      "type": "VEC2",
      "max": [
        1.0,
        1.0
      ],
      "min": [
        0.0,
        0.0
      ]
    },
    {
      "bufferView": 44,
      "componentType": 5126,
      "count": 18,
      "type": "VEC3",
      "max": [
        0.155376315,
        0.044,
        -0.519091666
      ],
      "min": [
        0.1208545,
        0.0,
        -0.5536135
      ]
    },
    {
      "bufferView": 45,
      "componentType": 5125,
      "count": 24,
      "type": "SCALAR",
      "max": [
        17.0
      ],
      "min": [
        0.0
      ]
    },
    {
      "bufferView": 46,
      "componentType": 5126,
      "count": 18,
      "type": "VEC3",
      "max": [
        1.0,
        1.0,
        1.0
      ],
      "min": [
        -0.707107,
        -1.0,
        -0.7071066
      ]
    },
    {
      "bufferView": 47,
      "componentType": 5126,
      "count": 18,
      "type": "VEC2",
      "max": [
        1.0,
        1.0
      ],
      "min": [
        0.0,
        0.0
      ]
    }
  ],
  "asset": {
    "version": "2.0"
  },
  "buffers": [
    {
      "uri": "data:application/octet-stream;base64,",
      "byteLength": 216
    },
    {
      "uri": "data:application/octet-stream;base64,",
      "byteLength": 96
    },
    {
      "uri": "data:application/octet-stream;base64,",
      "byteLength": 216
    },
    {
      "uri": "data:application/octet-stream;base64,",
      "byteLength": 144
    },
    {
      "uri": "data:application/octet-stream;base64,",
      "byteLength": 5760
    },
    {
      "uri": "data:application/octet-stream;base64,",
      "byteLength": 5616
    },
    {
      "uri": "data:application/octet-stream;base64,",
      "byteLength": 5760
    },
    {
      "uri": "data:application/octet-stream;base64,",
      "byteLength": 3840
    },
    {
      "uri": "data:application/octet-stream;base64,",
      "byteLength": 792
    },
    {
      "uri": "data:application/octet-stream;base64,",
      "byteLength": 528
    },
    {
      "uri": "data:application/octet-stream;base64,",
      "byteLength": 792
    },
    {
      "uri": "data:application/octet-stream;base64,",
      "byteLength": 528
    },
    {
      "uri": "data:application/octet-stream;base64,",
      "byteLength": 864
    },
    {
      "uri": "data:application/octet-stream;base64,",
      "byteLength": 528
    },
    {
      "uri": "data:application/octet-stream;base64,",
      "byteLength": 864
    },
    {
      "uri": "data:application/octet-stream;base64,",
      "byteLength": 576
    },
    {
      "uri": "data:application/octet-stream;base64,",
      "byteLength": 288
    },
    {
      "uri": "data:application/octet-stream;base64,",
      "byteLength": 144
    },
    {
      "uri": "data:application/octet-stream;base64,",
      "byteLength": 288
    },
    {
      "uri": "data:application/octet-stream;base64,",
      "byteLength": 192
    },
    {
      "uri": "data:application/octet-stream;base64,",
      "byteLength": 1152
    },
    {
      "uri": "data:application/octet-stream;base64,",
      "byteLength": 720
    },
    {
      "uri": "data:application/octet-stream;base64,",
      "byteLength": 1152
    },
    {
      "uri": "data:application/octet-stream;base64,",
      "byteLength": 768
    },
    {
      "uri": "data:application/octet-stream;base64,",
      "byteLength": 4200
    },
    {
      "uri": "data:application/octet-stream;base64,",
      "byteLength": 3936
    },
    {
      "uri": "data:application/octet-stream;base64,",
      "byteLength": 4200
    },
    {
      "uri": "data:application/octet-stream;base64,",
      "byteLength": 2800
    },
    {
      "uri": "data:application/octet-stream;base64,",
      "byteLength": 432
    },
    {
      "uri": "data:application/octet-stream;base64,",
      "byteLength": 240
    },
    {
      "uri": "data:application/octet-stream;base64,",
      "byteLength": 432
    },
    {
      "uri": "data:application/octet-stream;base64,",
      "byteLength": 288
    },
    {
      "uri": "data:application/octet-stream;base64,",
      "byteLength": 6192
    },
    {
      "uri": "data:application/octet-stream;base64,",
      "byteLength": 6144
    },
    {
      "uri": "data:application/octet-stream;base64,",
      "byteLength": 6192
    },
    {
      "uri": "data:application/octet-stream;base64,",
      "byteLength": 4128
    },
    {
      "uri": "data:application/octet-stream;base64,",
      "byteLength": 288
    },
    {
      "uri": "data:application/octet-stream;base64,",
      "byteLength": 144
    },
    {
      "uri": "data:application/octet-stream;base64,",
      "byteLength": 288
    },
    {
      "uri": "data:application/octet-stream;base64,",
      "byteLength": 192
    },
    {
      "uri": "data:application/octet-stream;base64,",
      "byteLength": 288
    },
    {
      "uri": "data:application/octet-stream;base64,",
      "byteLength": 144
    },
    {
      "uri": "data:application/octet-stream;base64,",
      "byteLength": 288
    },
    {
      "uri": "data:application/octet-stream;base64,",
      "byteLength": 192
    },
    {
      "uri": "data:application/octet-stream;base64,",
      "byteLength": 216
    },
    {
      "uri": "data:application/octet-stream;base64,",
      "byteLength": 96
    },
    {
      "uri": "data:application/octet-stream;base64,",
      "byteLength": 216
    },
    {
      "uri": "data:application/octet-stream;base64,",
      "byteLength": 144
    }
  ],
  "bufferViews": [
    {
      "buffer": 0,
      "byteLength": 216,
      "target": 34962
    },
    {
      "buffer": 1,
      "byteLength": 96,
      "target": 34963
    },
    {
      "buffer": 2,
      "byteLength": 216,
      "target": 34962
    },
    {
      "buffer": 3,
      "byteLength": 144,
      "target": 34962
    },
    {
      "buffer": 4,
      "byteLength": 5760,
      "target": 34962
    },
    {
      "buffer": 5,
      "byteLength": 5616,
      "target": 34963
    },
    {
      "buffer": 6,
      "byteLength": 5760,
      "target": 34962
    },
    {
      "buffer": 7,
      "byteLength": 3840,
      "target": 34962
    },
    {
      "buffer": 8,
      "byteLength": 792,
      "target": 34962
    },
    {
      "buffer": 9,
      "byteLength": 528,
      "target": 34963
    },
    {
      "buffer": 10,
      "byteLength": 792,
      "target": 34962
    },
    {
      "buffer": 11,
      "byteLength": 528,
      "target": 34962
    },
    {
      "buffer": 12,
      "byteLength": 864,
      "target": 34962
    },
    {
      "buffer": 13,
      "byteLength": 528,
      "target": 34963
    },
    {
      "buffer": 14,
      "byteLength": 864,
      "target": 34962
    },
    {
      "buffer": 15,
      "byteLength": 576,
      "target": 34962
    },
    {
      "buffer": 16,
      "byteLength": 288,
      "target": 34962
    },
    {
      "buffer": 17,
      "byteLength": 144,
      "target": 34963
    },
    {
      "buffer": 18,
      "byteLength": 288,
      "target": 34962
    },
    {
      "buffer": 19,
      "byteLength": 192,
      "target": 34962
    },
    {
      "buffer": 20,
      "byteLength": 1152,
      "target": 34962
    },
    {
      "buffer": 21,
      "byteLength": 720,
      "target": 34963
    },
    {
      "buffer": 22,
      "byteLength": 1152,
      "target": 34962
    },
    {
      "buffer": 23,
      "byteLength": 768,
      "target": 34962
    },
    {
      "buffer": 24,
      "byteLength": 4200,
      "target": 34962
    },
    {
      "buffer": 25,
      "byteLength": 3936,
      "target": 34963
    },
    {
      "buffer": 26,
      "byteLength": 4200,
      "target": 34962
    },
    {
      "buffer": 27,
      "byteLength": 2800,
      "target": 34962
    },
    {
      "buffer": 28,
      "byteLength": 432,
      "target": 34962
    },
    {
      "buffer": 29,
      "byteLength": 240,
      "target": 34963
    },
    {
      "buffer": 30,
      "byteLength": 432,
      "target": 34962
    },
    {
      "buffer": 31,
      "byteLength": 288,
      "target": 34962
    },
    {
      "buffer": 32,
      "byteLength": 6192,
      "target": 34962
    },
    {
      "buffer": 33,
      "byteLength": 6144,
      "target": 34963
    },
    {
      "buffer": 34,
      "byteLength": 6192,
      "target": 34962
    },
    {
      "buffer": 35,
      "byteLength": 4128,
      "target": 34962
    },
    {
      "buffer": 36,
      "byteLength": 288,
      "target": 34962
    },
    {
      "buffer": 37,
      "byteLength": 144,
      "target": 34963
    },
    {
      "buffer": 38,
      "byteLength": 288,
      "target": 34962
    },
    {
      "buffer": 39,
      "byteLength": 192,
      "target": 34962
    },
    {
      "buffer": 40,
      "byteLength": 288,
      "target": 34962
    },
    {
      "buffer": 41,
      "byteLength": 144,
      "target": 34963
    },
    {
      "buffer": 42,
      "byteLength": 288,
      "target": 34962
    },
    {
      "buffer": 43,
      "byteLength": 192,
      "target": 34962
    },
    {
      "buffer": 44,
      "byteLength": 216,
      "target": 34962
    },
    {
      "buffer": 45,
      "byteLength": 96,
      "target": 34963
    },
    {
      "buffer": 46,
      "byteLength": 216,
      "target": 34962
    },
    {
      "buffer": 47,
      "byteLength": 144,
      "target": 34962
    }
  ],
  "materials": [
    {
      "pbrMetallicRoughness": {
        "baseColorFactor": [
          0.0,
          0.0,
          0.0,
          1.0
        ]
      }
    }
  ],
  "meshes": [
    {
      "primitives": [
        {
          "attributes": {
            "POSITION": 0,
            "NORMAL": 2,
            "TEXCOORD_0": 3
          },
          "indices": 1,
          "material": 0
        }
      ]
    },
    {
      "primitives": [
        {
          "attributes": {
            "POSITION": 4,
            "NORMAL": 6,
            "TEXCOORD_0": 7
          },
          "indices": 5,
          "material": 0
        }
      ]
    },
    {
      "primitives": [
        {
          "attributes": {
            "POSITION": 8,
            "NORMAL": 10,
            "TEXCOORD_0": 11
          },
          "indices": 9,
          "material": 0
        }
      ]
    },
    {
      "primitives": [
        {
          "attributes": {
            "POSITION": 12,
            "NORMAL": 14,
            "TEXCOORD_0": 15
          },
          "indices": 13,
          "material": 0
        }
      ]
    },
    {
      "primitives": [
        {
          "attributes": {
            "POSITION": 16,
            "NORMAL": 18,
            "TEXCOORD_0": 19
          },
          "indices": 17,
          "material": 0
        }
      ]
    },
    {
      "primitives": [
        {
          "attributes": {
            "POSITION": 20,
            "NORMAL": 22,
            "TEXCOORD_0": 23
          },
          "indices": 21,
          "material": 0
        }
      ]
    },
    {
      "primitives": [
        {
          "attributes": {
            "POSITION": 24,
            "NORMAL": 26,
            "TEXCOORD_0": 27
          },
          "indices": 25,
          "material": 0
        }
      ]
    },
    {
      "primitives": [
        {
          "attributes": {
            "POSITION": 28,
            "NORMAL": 30,
            "TEXCOORD_0": 31
          },
          "indices": 29,
          "material": 0
        }
      ]
    },
    {
      "primitives": [
        {
          "attributes": {
            "POSITION": 32,
            "NORMAL": 34,
            "TEXCOORD_0": 35
          },
          "indices": 33,
          "material": 0
        }
      ]
    },
    {
      "primitives": [
        {
          "attributes": {
            "POSITION": 36,
            "NORMAL": 38,
            "TEXCOORD_0": 39
          },
          "indices": 37,
          "material": 0
        }
      ]
    },
    {
      "primitives": [
        {
          "attributes": {
            "POSITION": 40,
            "NORMAL": 42,
            "TEXCOORD_0": 43
          },
          "indices": 41,
          "material": 0
        }
      ]
    },
    {
      "primitives": [
        {
          "attributes": {
            "POSITION": 44,
            "NORMAL": 46,
            "TEXCOORD_0": 47
          },
          "indices": 45,
          "material": 0
        }
      ]
    }
  ],
  "nodes": [
    {
      "mesh": 0
    },
    {
      "mesh": 1
    },
    {
      "mesh": 2
    },
    {
      "mesh": 3
    },
    {
      "mesh": 4
    },
    {
      "mesh": 5
    },
    {
      "mesh": 6
    },
    {
      "mesh": 7
    },
    {
      "mesh": 8
    },
    {
      "mesh": 9
    },
    {
      "mesh": 10
    },
    {
      "mesh": 11
    }
  ],
  "samplers": [
    {
      "magFilter": 9729,
      "minFilter": 9729
    }
  ],
  "scene": 0,
  "scenes": [
    {
      "nodes": [
        0,
        1,
        2,
        3,
        4,
        5,
        6,
        7,
        8,
        9,
        10,
        11
      ],
      "extensions": {}
    }
  ],
  "extensions": {}
}